<?xml version="1.0" encoding="utf-8"?>
<!-- Generator: Adobe Illustrator 26.3.1, SVG Export Plug-In . SVG Version: 6.00 Build 0)  -->
<svg version="1.1" id="Layer_1" xmlns="http://www.w3.org/2000/svg" xmlns:xlink="http://www.w3.org/1999/xlink" x="0px" y="0px"
	 viewBox="0 0 379 379" style="enable-background:new 0 0 379 379;" xml:space="preserve">
<style type="text/css">
	.st0{fill:#969696;}
	.st1{fill:#2AC7D2;}
	.st2{fill:#783CE2;}
	.st3{fill:#288AAC;}
	.st4{fill-rule:evenodd;clip-rule:evenodd;fill:#052942;}
</style>
<g>
	<g>
		<g>
			<path class="st0" d="M88.4,333.3c0-0.2,0.2-0.4,0.4-0.4h4.5c2.4,0,4.3,1.9,4.3,4.2c0,2.4-1.9,4.3-4.3,4.3h-2.4v4.5
				c0,0.2-0.2,0.4-0.4,0.4h-1.8c-0.2,0-0.4-0.2-0.4-0.4V333.3z M93.1,339.2c1.1,0,2-0.9,2-2c0-1.1-0.9-1.9-2-1.9h-2.2v3.9H93.1z"/>
			<path class="st0" d="M106,332.8c3.8,0,6.9,3.1,6.9,6.9c0,3.8-3.1,6.9-6.9,6.9c-3.8,0-6.9-3.1-6.9-6.9
				C99.1,335.8,102.1,332.8,106,332.8z M106,344.1c2.4,0,4.4-2,4.4-4.4c0-2.4-2-4.4-4.4-4.4c-2.4,0-4.4,2-4.4,4.4
				C101.6,342.1,103.6,344.1,106,344.1z"/>
			<path class="st0" d="M114.4,333.4c-0.1-0.3,0.1-0.5,0.3-0.5h1.8c0.2,0,0.3,0.1,0.3,0.3l2,7.7h0.1l3.1-7.9c0-0.1,0.1-0.2,0.3-0.2
				h0.3c0.2,0,0.3,0.1,0.3,0.2l3.1,7.9h0.1l2-7.7c0-0.1,0.2-0.3,0.3-0.3h1.8c0.3,0,0.4,0.2,0.3,0.5l-3.6,12.9c0,0.2-0.2,0.3-0.3,0.3
				h-0.3c-0.2,0-0.3-0.1-0.3-0.2l-3.4-8.7h-0.1l-3.4,8.7c-0.1,0.1-0.1,0.2-0.3,0.2h-0.3c-0.2,0-0.3-0.1-0.3-0.3L114.4,333.4z"/>
			<path class="st0" d="M133.1,333.3c0-0.2,0.2-0.4,0.4-0.4h7.8c0.2,0,0.4,0.2,0.4,0.4v1.6c0,0.2-0.2,0.4-0.4,0.4h-5.7v3.2h4.7
				c0.2,0,0.4,0.2,0.4,0.4v1.6c0,0.2-0.2,0.4-0.4,0.4h-4.7v3.4h5.7c0.2,0,0.4,0.2,0.4,0.4v1.6c0,0.2-0.2,0.4-0.4,0.4h-7.8
				c-0.2,0-0.4-0.2-0.4-0.4V333.3z"/>
			<path class="st0" d="M144.7,333.3c0-0.2,0.2-0.4,0.4-0.4h5.5c2.3,0,4.2,1.8,4.2,4.1c0,1.8-1.2,3.2-2.8,3.9l2.6,4.9
				c0.1,0.2,0,0.6-0.3,0.6h-2c-0.2,0-0.3-0.1-0.3-0.2l-2.6-5.1h-2.1v4.9c0,0.2-0.2,0.4-0.4,0.4h-1.8c-0.2,0-0.4-0.2-0.4-0.4V333.3z
				 M150.4,339.1c1,0,1.9-0.9,1.9-2c0-1-0.9-1.9-1.9-1.9h-3.1v3.8H150.4z"/>
			<path class="st0" d="M157.8,333.3c0-0.2,0.2-0.4,0.4-0.4h7.8c0.2,0,0.4,0.2,0.4,0.4v1.6c0,0.2-0.2,0.4-0.4,0.4h-5.7v3.2h4.7
				c0.2,0,0.4,0.2,0.4,0.4v1.6c0,0.2-0.2,0.4-0.4,0.4h-4.7v3.4h5.7c0.2,0,0.4,0.2,0.4,0.4v1.6c0,0.2-0.2,0.4-0.4,0.4h-7.8
				c-0.2,0-0.4-0.2-0.4-0.4V333.3z"/>
			<path class="st0" d="M169.4,333.3c0-0.2,0.2-0.4,0.3-0.4h4.6c3.7,0,6.7,3,6.7,6.7c0,3.7-3,6.7-6.7,6.7h-4.6
				c-0.2,0-0.3-0.2-0.3-0.4V333.3z M174.1,344.1c2.5,0,4.3-1.9,4.3-4.4c0-2.5-1.8-4.4-4.3-4.4h-2.2v8.8H174.1z"/>
			<path class="st0" d="M191.2,333.3c0-0.2,0.2-0.4,0.4-0.4h4.4c2.3,0,4.1,1.5,4.1,3.6c0,1.5-1.2,2.6-2.1,3.1c1,0.3,2.5,1.4,2.5,3.1
				c0,2.2-1.8,3.7-4.2,3.7h-4.7c-0.2,0-0.4-0.2-0.4-0.4V333.3z M195.7,338.6c1,0,1.7-0.8,1.7-1.7c0-1-0.7-1.6-1.7-1.6h-2.1v3.4
				H195.7z M196,344.1c1,0,1.7-0.7,1.7-1.7c0-1-1-1.7-2-1.7h-2.1v3.4H196z"/>
			<path class="st0" d="M205.8,339.9l-4.4-6.4c-0.2-0.3,0-0.6,0.3-0.6h2c0.2,0,0.3,0.1,0.3,0.2l3.1,4.4l3.1-4.4
				c0.1-0.1,0.2-0.2,0.3-0.2h2c0.3,0,0.5,0.3,0.3,0.6l-4.4,6.4v6.1c0,0.2-0.2,0.4-0.4,0.4h-1.8c-0.2,0-0.4-0.2-0.4-0.4V339.9z"/>
		</g>
		<g>
			<path class="st0" d="M231.9,329.3c2.8,0,4.9,0.9,6.8,2.6c0.3,0.2,0.3,0.6,0,0.8l-1.7,1.8c-0.2,0.2-0.5,0.2-0.7,0
				c-1.2-1-2.8-1.7-4.3-1.7c-3.6,0-6.3,3-6.3,6.6c0,3.5,2.7,6.5,6.3,6.5c1.7,0,3.1-0.6,4.3-1.6c0.2-0.2,0.5-0.2,0.7,0l1.7,1.8
				c0.2,0.2,0.2,0.6,0,0.8c-1.9,1.9-4.3,2.7-6.8,2.7c-5.6,0-10.2-4.5-10.2-10.1C221.8,333.8,226.3,329.3,231.9,329.3z"/>
			<path class="st0" d="M242.9,330.1c0-0.3,0.3-0.5,0.5-0.5h2.6c0.3,0,0.5,0.3,0.5,0.5v18.6c0,0.3-0.3,0.5-0.5,0.5h-2.6
				c-0.3,0-0.5-0.3-0.5-0.5V330.1z"/>
			<path class="st0" d="M249.5,330.3c-0.2-0.4,0.1-0.7,0.5-0.7h2.9c0.3,0,0.4,0.2,0.5,0.3l5.4,12.1h0.2l5.4-12.1
				c0.1-0.1,0.2-0.3,0.5-0.3h2.9c0.4,0,0.6,0.4,0.5,0.7l-8.7,18.9c-0.1,0.2-0.2,0.3-0.5,0.3h-0.3c-0.3,0-0.4-0.1-0.5-0.3
				L249.5,330.3z"/>
			<path class="st0" d="M271.2,330.1c0-0.3,0.3-0.5,0.5-0.5h2.6c0.3,0,0.5,0.3,0.5,0.5v18.6c0,0.3-0.3,0.5-0.5,0.5h-2.6
				c-0.3,0-0.5-0.3-0.5-0.5V330.1z"/>
			<path class="st0" d="M289.1,329.3c2.8,0,4.9,0.9,6.8,2.6c0.3,0.2,0.3,0.6,0,0.8l-1.7,1.8c-0.2,0.2-0.5,0.2-0.7,0
				c-1.2-1-2.8-1.7-4.3-1.7c-3.6,0-6.3,3-6.3,6.6c0,3.5,2.7,6.5,6.3,6.5c1.7,0,3.1-0.6,4.3-1.6c0.2-0.2,0.5-0.2,0.7,0l1.7,1.8
				c0.2,0.2,0.2,0.6,0,0.8c-1.9,1.9-4.3,2.7-6.8,2.7c-5.6,0-10.2-4.5-10.2-10.1C279,333.8,283.5,329.3,289.1,329.3z"/>
			<path class="st0" d="M300.1,330.1c0-0.3,0.2-0.5,0.5-0.5h6.6c3.5,0,6.3,2.8,6.3,6.2c0,3.5-2.8,6.3-6.3,6.3h-3.5v6.6
				c0,0.3-0.3,0.5-0.5,0.5h-2.6c-0.3,0-0.5-0.3-0.5-0.5V330.1z M307,338.7c1.6,0,2.9-1.3,2.9-2.9c0-1.5-1.3-2.7-2.9-2.7h-3.3v5.7
				H307z"/>
			<path class="st0" d="M317.2,330.1c0-0.3,0.2-0.5,0.5-0.5h2.6c0.3,0,0.5,0.3,0.5,0.5v15.8h7.2c0.3,0,0.5,0.3,0.5,0.5v2.3
				c0,0.3-0.2,0.5-0.5,0.5h-10.3c-0.3,0-0.5-0.3-0.5-0.5V330.1z"/>
			<path class="st0" d="M331.2,330.1c0-0.3,0.3-0.5,0.5-0.5h2.7c0.3,0,0.5,0.3,0.5,0.5v11.5c0,2.4,1.6,4.3,4.1,4.3
				c2.4,0,4.1-1.9,4.1-4.3v-11.5c0-0.3,0.2-0.5,0.5-0.5h2.7c0.3,0,0.5,0.3,0.5,0.5v11.7c0,4.3-3.4,7.7-7.9,7.7
				c-4.4,0-7.8-3.5-7.8-7.7V330.1z"/>
			<path class="st0" d="M351,346.5l1-1.7c0.2-0.4,0.7-0.4,1-0.2c0.1,0.1,2.4,1.7,4.3,1.7c1.5,0,2.6-1,2.6-2.2c0-1.4-1.2-2.4-3.6-3.4
				c-2.6-1.1-5.3-2.8-5.3-6.1c0-2.5,1.9-5.4,6.3-5.4c2.9,0,5.1,1.5,5.6,1.9c0.3,0.2,0.4,0.6,0.2,0.9l-1.1,1.6
				c-0.2,0.3-0.6,0.6-1,0.3c-0.2-0.1-2.4-1.5-3.9-1.5c-1.6,0-2.5,1.1-2.5,2c0,1.3,1,2.2,3.3,3.2c2.7,1.1,5.9,2.7,5.9,6.4
				c0,2.9-2.5,5.6-6.5,5.6c-3.5,0-5.6-1.7-6.2-2.2C350.9,347.1,350.8,347,351,346.5z"/>
		</g>
	</g>
	<g>
		<g>
			<g>
				<path class="st1" d="M163.6,160.4V58l-39.3-12.3c-2-0.6-4,0.9-4,3v127.8c0,1.4,0.9,2.6,2.2,3l81.3,25.3c2,0.6,4-0.9,4-3v-25.5
					l-41.9-13.1C164.4,162.9,163.6,161.7,163.6,160.4z"/>
				<path class="st2" d="M248.8,54.9l-81.3-25.3c-2-0.6-4,0.9-4,3V58l41.9,13.1c1.3,0.4,2.2,1.6,2.2,3v102.4l39.3,12.3
					c2,0.6,4-0.9,4-3V57.9C251,56.5,250.1,55.3,248.8,54.9z"/>
				<path class="st3" d="M205.5,71.1L163.6,58v102.4c0,1.4,0.9,2.6,2.2,3l41.9,13.1V74C207.7,72.7,206.8,71.5,205.5,71.1z"/>
			</g>
			<path class="st4" d="M245.4,237.7c3.7,0,6.8,2.8,6.8,6.2c0,3.4-3,6.2-6.8,6.2s-6.8-2.8-6.8-6.2
				C238.6,240.4,241.6,237.7,245.4,237.7L245.4,237.7z M240.3,307.3v-47.5c0-0.6,0.4-1,0.9-1l8.2,0c0.5,0,0.9,0.5,0.9,1v47.5
				c0,0.6-0.4,1-0.9,1l-8.2,0C240.7,308.4,240.3,307.9,240.3,307.3L240.3,307.3z M370.5,298.4c1.4,0,2.7,0.6,3.6,1.5
				c0.9,0.9,1.5,2.1,1.5,3.5c0,1.4-0.6,2.6-1.5,3.5c-0.9,0.9-2.2,1.5-3.6,1.5c-1.4,0-2.7-0.6-3.6-1.5c-0.9-0.9-1.5-2.1-1.5-3.5
				c0-1.4,0.6-2.6,1.5-3.5C367.8,299,369.1,298.4,370.5,298.4L370.5,298.4z M373.4,300.5c-0.8-0.7-1.8-1.2-3-1.2
				c-1.2,0-2.2,0.5-3,1.2c-0.8,0.7-1.2,1.8-1.2,2.9c0,1.1,0.5,2.2,1.2,2.9c0.8,0.7,1.8,1.2,3,1.2c1.2,0,2.2-0.5,3-1.2
				c0.8-0.7,1.2-1.8,1.2-2.9C374.7,302.3,374.2,301.3,373.4,300.5L373.4,300.5z M369.6,303.8h1.2c0.4,0,0.6,0.2,0.6,0.6v0.2
				c0,0.1,0,0.3,0,0.3c0,0.5,0,0.6,0.2,0.9h1.1v-0.2c-0.2-0.1-0.2-0.2-0.2-0.4c0-1.5-0.1-1.5-0.7-1.8c0.6-0.2,0.8-0.6,0.8-1.2
				c0-0.4-0.1-0.8-0.4-1c-0.2-0.2-0.5-0.3-1-0.3h-2.7v5h1V303.8L369.6,303.8z M369.6,302.9v-1.3h1.2c0.3,0,0.4,0,0.5,0.1
				c0.1,0.1,0.2,0.3,0.2,0.5c0,0.2-0.1,0.4-0.2,0.5c-0.1,0.1-0.2,0.1-0.5,0.1H369.6L369.6,302.9z M155.4,266
				c5.6-9.5,20.4-11.5,28.5-4.7c3.5,3,5.1,7.8,5.1,14.3v31.7c0,0.6-0.5,1-1,1l-8.8,0c-0.6,0-1-0.5-1-1v-27c0-7.3-2-13.7-10.3-13.7
				c-6.9,0-11,6-11,12.3v28.4c0,0.6-0.5,1-1,1l-8.9,0c-0.6,0-1-0.5-1-1v-47.5c0-0.6,0.5-1,1-1l7.5,0c0.6,0,1,0.5,1,1V266L155.4,266z
				 M228.5,266.8c-4.8-1.5-20.6-4.3-20.6,4.5c0,4.7,5.8,5.9,9.3,7.2c7.7,2.7,14.7,5.7,14.7,15c0,5.8-3.2,10.1-7.7,12.6
				c-7.1,4-18.9,3.4-26.3,0.6c-0.4-0.2-0.7-0.5-0.7-1l0-7.4c0-0.3,0.1-0.7,0.4-0.9c0.3-0.2,0.6-0.3,0.9-0.2c4.5,2.1,21.6,6.5,22-3.2
				c0.1-3-3-4.9-6-6.1c-5-2-11.6-3.6-15.1-8c-1.9-2.4-2.7-5.1-2.7-8.2c0-8.8,9.2-14.2,17.2-15c2.5-0.3,5.6-0.1,8.1,0.2
				c2.4,0.2,4.8,0.7,6.9,1.5c0.4,0.2,0.6,0.5,0.7,1l0.1,6.3c0,0.3-0.1,0.6-0.4,0.8C229.1,266.8,228.8,266.9,228.5,266.8L228.5,266.8
				z M113.9,265.8c-10.3,0.1-14.4,8.4-14.5,17.7c0.1,9.3,4.2,17.6,14.5,17.7c10.3-0.1,14.4-8.4,14.5-17.7
				C128.3,274.3,124.2,265.9,113.9,265.8L113.9,265.8z M88.8,283.5c0-14.5,11.3-26.2,25.2-26.2c13.9,0,25.2,11.7,25.2,26.2
				c0,14.5-11.3,26.2-25.2,26.2C100,309.7,88.8,298,88.8,283.5L88.8,283.5z M338.3,265.8c-10.3,0.1-14.4,8.4-14.5,17.7
				c0.1,9.3,4.2,17.6,14.5,17.7c10.3-0.1,14.4-8.4,14.5-17.7C352.7,274.3,348.6,265.9,338.3,265.8L338.3,265.8z M313.1,283.5
				c0-14.5,11.3-26.2,25.2-26.2c13.9,0,25.2,11.7,25.2,26.2c0,14.5-11.3,26.2-25.2,26.2C324.4,309.7,313.1,298,313.1,283.5
				L313.1,283.5z M296.9,301.1c-4.1,5.1-8.4,8-14.8,8c-13.5,1.4-24.6-9-24.6-25.7c0-7.2,1.8-14.1,6.6-19.6
				c4.6-5.2,10.6-7.5,17.4-7.5c5.4,0,11.4,2.9,15,7v-23c0-0.6,0.5-1,1-1l8,0c0.6,0,1,0.5,1,1v67c0,0.6-0.5,1-1,1l-7.6,0
				c-0.6,0-1-0.5-1-1V301.1L296.9,301.1z M272.5,269.9c-3,3.7-3.9,8.4-3.9,13.1c0,4.3,1.3,9.6,4.1,12.9c2.5,3,5.8,4.3,9.7,4.3
				c3.9,0,6.7-0.9,9.4-3.8c2.7-3,5.1-8.2,5-13.7C296.5,266.2,281.1,259.3,272.5,269.9L272.5,269.9z M14.4,265.1
				c3.3-4.1,8.1-7.4,14.4-7.4c3.6,0,8.4,0.9,11.4,2.8c2.3,1.5,4.1,3.4,5.3,5.7c4.2-5.8,8.8-8.5,16.2-8.5c13.6,0,20,8.3,20,20.3v29.3
				c0,0.6-0.5,1-1.1,1l-8.8,0c-0.6,0-1.1-0.5-1.1-1v-26.6c0-7.1-1.7-13.5-11.2-13.5c-7,0-11.6,7-11.6,13v27.1c0,0.6-0.5,1-1.1,1
				l-9.4,0c-0.6,0-1.1-0.5-1.1-1v-28.1c0-7.1-2.4-11.9-10.7-11.9c-7.4,0-11.4,6.7-11.4,13v27c0,0.6-0.5,1-1.1,1l-8.8,0
				c-0.6,0-1.1-0.5-1.1-1v-47.5c0-0.6,0.5-1,1.1-1l8.8,0c0.6,0,1.1,0.5,1.1,1V265.1L14.4,265.1z"/>
		</g>
	</g>
</g>
</svg>
